<?xml version="1.0" encoding="UTF-8"?>
<svg id="Capa_2" data-name="Capa 2" xmlns="http://www.w3.org/2000/svg" xmlns:xlink="http://www.w3.org/1999/xlink" viewBox="0 0 176.82 227">
  <defs>
    <style>
      .cls-1 {
        fill: url(#Degradado_sin_nombre_681);
      }

      .cls-1, .cls-2, .cls-3 {
        opacity: .3;
      }

      .cls-4 {
        fill: url(#Degradado_sin_nombre_694-4);
      }

      .cls-5 {
        fill: url(#Degradado_sin_nombre_694);
      }

      .cls-2 {
        fill: url(#Degradado_sin_nombre_681-3);
      }

      .cls-3 {
        fill: url(#Degradado_sin_nombre_681-2);
      }

      .cls-6 {
        fill: url(#Degradado_sin_nombre_694-2);
      }

      .cls-7 {
        fill: url(#Degradado_sin_nombre_694-3);
      }
    </style>
    <linearGradient id="Degradado_sin_nombre_694" data-name="Degradado sin nombre 694" x1="0" y1="67.53" x2="48.64" y2="67.53" gradientUnits="userSpaceOnUse">
      <stop offset="0" stop-color="#00d7eb"/>
      <stop offset="1" stop-color="#0000b3"/>
    </linearGradient>
    <linearGradient id="Degradado_sin_nombre_694-2" data-name="Degradado sin nombre 694" y1="189.88" y2="189.88" xlink:href="#Degradado_sin_nombre_694"/>
    <linearGradient id="Degradado_sin_nombre_694-3" data-name="Degradado sin nombre 694" x1="176.79" y1="165.12" x2="57.83" y2="165.12" xlink:href="#Degradado_sin_nombre_694"/>
    <linearGradient id="Degradado_sin_nombre_694-4" data-name="Degradado sin nombre 694" x1="176.82" y1="105.36" x2="0" y2="105.36" xlink:href="#Degradado_sin_nombre_694"/>
    <linearGradient id="Degradado_sin_nombre_681" data-name="Degradado sin nombre 681" x1="48.64" y1="189.99" x2="0" y2="189.99" gradientUnits="userSpaceOnUse">
      <stop offset="0" stop-color="#000"/>
      <stop offset="1" stop-color="#1a1112"/>
    </linearGradient>
    <linearGradient id="Degradado_sin_nombre_681-2" data-name="Degradado sin nombre 681" x1="99.6" y1="129.29" x2="57.92" y2="129.29" xlink:href="#Degradado_sin_nombre_681"/>
    <linearGradient id="Degradado_sin_nombre_681-3" data-name="Degradado sin nombre 681" x1="48.64" y1="93.63" x2="0" y2="93.63" xlink:href="#Degradado_sin_nombre_681"/>
  </defs>
  <g id="Capa_1-2" data-name="Capa 1">
    <g>
      <polygon class="cls-5" points="48.64 0 48.64 77.09 30.48 98.73 0 135.06 0 0 48.64 0"/>
      <polygon class="cls-6" points="48.64 152.76 48.64 227 0 227 0 210.73 48.64 152.76"/>
      <path class="cls-7" d="M176.79,226.9l-.15,.1h-27.53c-19.82,0-38.4-9.67-49.77-25.91l-20.22-28.87-.61-.87-11.29-16.12-9.31-13.31-.08-.12,32.37-38.57,.08,.12,9.31,13.3,5.75,8.22,71.44,102.03Z"/>
      <path class="cls-4" d="M176.82,0L90.2,103.23l-32.37,38.57-9.19,10.95L0,210.73v-75.66l30.48-36.33,18.16-21.64,12.68-15.11L95.32,21.47C106.74,7.86,123.59,0,141.36,0h35.46Z"/>
      <polygon class="cls-1" points="0 227 0 210.95 30.48 174.61 48.64 152.97 48.64 177.38 37.31 190.89 7.01 227 0 227"/>
      <polygon class="cls-3" points="99.6 116.65 75.05 145.91 67.23 155.23 57.92 141.92 61.32 137.87 90.29 103.35 99.6 116.65"/>
      <polygon class="cls-2" points="48.64 52.44 48.64 76.85 37.31 90.36 0 134.83 0 110.42 30.48 74.09 48.64 52.44"/>
    </g>
  </g>
</svg>